<mxfile host="app.diagrams.net" modified="2023-11-12T03:07:38.985Z" agent="Mozilla/5.0 (Windows NT 10.0; Win64; x64) AppleWebKit/537.36 (KHTML, like Gecko) Chrome/119.0.0.0 Safari/537.36" etag="qAtE92Sj0_uuaG6c_Ecl" version="21.7.5" type="device">
  <diagram name="Página-1" id="1vxMEpbFkG49kzZT0KkU">
    <mxGraphModel dx="2726" dy="1651" grid="1" gridSize="10" guides="1" tooltips="1" connect="1" arrows="1" fold="1" page="1" pageScale="1" pageWidth="827" pageHeight="1169" math="0" shadow="0">
      <root>
        <mxCell id="0" />
        <mxCell id="1" parent="0" />
        <mxCell id="pZJrdboLxwknqrlkqhrA-4" value="" style="edgeStyle=orthogonalEdgeStyle;rounded=0;orthogonalLoop=1;jettySize=auto;html=1;" edge="1" parent="1" source="pZJrdboLxwknqrlkqhrA-1" target="pZJrdboLxwknqrlkqhrA-3">
          <mxGeometry relative="1" as="geometry" />
        </mxCell>
        <mxCell id="pZJrdboLxwknqrlkqhrA-1" value="inicio" style="ellipse;whiteSpace=wrap;html=1;fillColor=#dae8fc;strokeColor=#6c8ebf;" vertex="1" parent="1">
          <mxGeometry x="250" y="90" width="120" height="80" as="geometry" />
        </mxCell>
        <mxCell id="pZJrdboLxwknqrlkqhrA-6" value="" style="edgeStyle=orthogonalEdgeStyle;rounded=0;orthogonalLoop=1;jettySize=auto;html=1;" edge="1" parent="1" source="pZJrdboLxwknqrlkqhrA-3">
          <mxGeometry relative="1" as="geometry">
            <mxPoint x="310" y="310" as="targetPoint" />
          </mxGeometry>
        </mxCell>
        <mxCell id="pZJrdboLxwknqrlkqhrA-3" value="num1,num2,res int" style="whiteSpace=wrap;html=1;fillColor=#dae8fc;strokeColor=#6c8ebf;" vertex="1" parent="1">
          <mxGeometry x="250" y="210" width="120" height="60" as="geometry" />
        </mxCell>
        <mxCell id="pZJrdboLxwknqrlkqhrA-8" value="" style="edgeStyle=orthogonalEdgeStyle;rounded=0;orthogonalLoop=1;jettySize=auto;html=1;" edge="1" parent="1" target="pZJrdboLxwknqrlkqhrA-7">
          <mxGeometry relative="1" as="geometry">
            <mxPoint x="310" y="390" as="sourcePoint" />
          </mxGeometry>
        </mxCell>
        <mxCell id="pZJrdboLxwknqrlkqhrA-37" value="" style="edgeStyle=orthogonalEdgeStyle;rounded=0;orthogonalLoop=1;jettySize=auto;html=1;" edge="1" parent="1" source="pZJrdboLxwknqrlkqhrA-7" target="pZJrdboLxwknqrlkqhrA-36">
          <mxGeometry relative="1" as="geometry" />
        </mxCell>
        <mxCell id="pZJrdboLxwknqrlkqhrA-7" value="num1" style="shape=parallelogram;perimeter=parallelogramPerimeter;whiteSpace=wrap;html=1;fixedSize=1;fillColor=#dae8fc;strokeColor=#6c8ebf;" vertex="1" parent="1">
          <mxGeometry x="250" y="430" width="120" height="60" as="geometry" />
        </mxCell>
        <mxCell id="pZJrdboLxwknqrlkqhrA-9" value="" style="edgeStyle=orthogonalEdgeStyle;rounded=0;orthogonalLoop=1;jettySize=auto;html=1;exitX=0.45;exitY=1;exitDx=0;exitDy=0;exitPerimeter=0;" edge="1" parent="1" source="pZJrdboLxwknqrlkqhrA-35" target="pZJrdboLxwknqrlkqhrA-11">
          <mxGeometry relative="1" as="geometry">
            <mxPoint x="500" y="730" as="sourcePoint" />
          </mxGeometry>
        </mxCell>
        <mxCell id="pZJrdboLxwknqrlkqhrA-43" value="" style="edgeStyle=orthogonalEdgeStyle;rounded=0;orthogonalLoop=1;jettySize=auto;html=1;" edge="1" parent="1" source="pZJrdboLxwknqrlkqhrA-11" target="pZJrdboLxwknqrlkqhrA-42">
          <mxGeometry relative="1" as="geometry" />
        </mxCell>
        <mxCell id="pZJrdboLxwknqrlkqhrA-11" value="num2" style="shape=parallelogram;perimeter=parallelogramPerimeter;whiteSpace=wrap;html=1;fixedSize=1;fillColor=#dae8fc;strokeColor=#6c8ebf;" vertex="1" parent="1">
          <mxGeometry x="440" y="770" width="120" height="60" as="geometry" />
        </mxCell>
        <mxCell id="pZJrdboLxwknqrlkqhrA-13" value="" style="edgeStyle=orthogonalEdgeStyle;rounded=0;orthogonalLoop=1;jettySize=auto;html=1;" edge="1" parent="1" source="pZJrdboLxwknqrlkqhrA-14" target="pZJrdboLxwknqrlkqhrA-15">
          <mxGeometry relative="1" as="geometry" />
        </mxCell>
        <mxCell id="pZJrdboLxwknqrlkqhrA-14" value="&quot;num1, &quot; * &quot;,num2,&quot;&amp;nbsp; &amp;nbsp;= &quot;" style="shape=document;whiteSpace=wrap;html=1;boundedLbl=1;fillColor=#dae8fc;strokeColor=#6c8ebf;" vertex="1" parent="1">
          <mxGeometry x="690" y="1020" width="130" height="80" as="geometry" />
        </mxCell>
        <mxCell id="pZJrdboLxwknqrlkqhrA-18" value="" style="edgeStyle=orthogonalEdgeStyle;rounded=0;orthogonalLoop=1;jettySize=auto;html=1;" edge="1" parent="1" source="pZJrdboLxwknqrlkqhrA-15" target="pZJrdboLxwknqrlkqhrA-17">
          <mxGeometry relative="1" as="geometry" />
        </mxCell>
        <mxCell id="pZJrdboLxwknqrlkqhrA-15" value="res" style="shape=parallelogram;perimeter=parallelogramPerimeter;whiteSpace=wrap;html=1;fixedSize=1;fillColor=#dae8fc;strokeColor=#6c8ebf;" vertex="1" parent="1">
          <mxGeometry x="695" y="1140" width="120" height="60" as="geometry" />
        </mxCell>
        <mxCell id="pZJrdboLxwknqrlkqhrA-48" style="edgeStyle=orthogonalEdgeStyle;rounded=0;orthogonalLoop=1;jettySize=auto;html=1;" edge="1" parent="1">
          <mxGeometry relative="1" as="geometry">
            <mxPoint x="310" y="1500" as="targetPoint" />
            <mxPoint x="630" y="1320" as="sourcePoint" />
          </mxGeometry>
        </mxCell>
        <mxCell id="pZJrdboLxwknqrlkqhrA-17" value="&quot;el resultado es &quot;,abs(MultiplicarDosNumeros(num1,num2)),&quot; tu respues es &quot;, res = MultiplicarDosNumeros(num1,num2)" style="shape=document;whiteSpace=wrap;html=1;boundedLbl=1;fillColor=#dae8fc;strokeColor=#6c8ebf;" vertex="1" parent="1">
          <mxGeometry x="630" y="1250" width="250" height="120" as="geometry" />
        </mxCell>
        <mxCell id="pZJrdboLxwknqrlkqhrA-19" value="fin" style="ellipse;whiteSpace=wrap;html=1;fillColor=#dae8fc;strokeColor=#6c8ebf;" vertex="1" parent="1">
          <mxGeometry x="250" y="1500" width="120" height="80" as="geometry" />
        </mxCell>
        <mxCell id="pZJrdboLxwknqrlkqhrA-23" value="" style="edgeStyle=orthogonalEdgeStyle;rounded=0;orthogonalLoop=1;jettySize=auto;html=1;" edge="1" parent="1" source="pZJrdboLxwknqrlkqhrA-21" target="pZJrdboLxwknqrlkqhrA-22">
          <mxGeometry relative="1" as="geometry" />
        </mxCell>
        <mxCell id="pZJrdboLxwknqrlkqhrA-21" value="inicio funcion" style="ellipse;whiteSpace=wrap;html=1;fillColor=#ffe6cc;strokeColor=#d79b00;" vertex="1" parent="1">
          <mxGeometry x="550" y="100" width="110" height="70" as="geometry" />
        </mxCell>
        <mxCell id="pZJrdboLxwknqrlkqhrA-25" value="" style="edgeStyle=orthogonalEdgeStyle;rounded=0;orthogonalLoop=1;jettySize=auto;html=1;" edge="1" parent="1" source="pZJrdboLxwknqrlkqhrA-22" target="pZJrdboLxwknqrlkqhrA-24">
          <mxGeometry relative="1" as="geometry" />
        </mxCell>
        <mxCell id="pZJrdboLxwknqrlkqhrA-22" value="&quot;Ingresa un número&quot;" style="shape=document;whiteSpace=wrap;html=1;boundedLbl=1;fillColor=#ffe6cc;strokeColor=#d79b00;" vertex="1" parent="1">
          <mxGeometry x="545" y="220" width="120" height="80" as="geometry" />
        </mxCell>
        <mxCell id="pZJrdboLxwknqrlkqhrA-24" value="fin funcion" style="ellipse;whiteSpace=wrap;html=1;fillColor=#ffe6cc;strokeColor=#d79b00;" vertex="1" parent="1">
          <mxGeometry x="550" y="350" width="110" height="70" as="geometry" />
        </mxCell>
        <mxCell id="pZJrdboLxwknqrlkqhrA-26" value="PROCEDIMIENTO&lt;br&gt;PedirNumero()" style="text;html=1;align=center;verticalAlign=middle;resizable=0;points=[];autosize=1;strokeColor=none;fillColor=none;" vertex="1" parent="1">
          <mxGeometry x="550" y="55" width="120" height="40" as="geometry" />
        </mxCell>
        <mxCell id="pZJrdboLxwknqrlkqhrA-27" value="" style="edgeStyle=orthogonalEdgeStyle;rounded=0;orthogonalLoop=1;jettySize=auto;html=1;" edge="1" parent="1" source="pZJrdboLxwknqrlkqhrA-28">
          <mxGeometry relative="1" as="geometry">
            <mxPoint x="850" y="220" as="targetPoint" />
          </mxGeometry>
        </mxCell>
        <mxCell id="pZJrdboLxwknqrlkqhrA-28" value="inicio funcion" style="ellipse;whiteSpace=wrap;html=1;fillColor=#d80073;strokeColor=#A50040;fontColor=#ffffff;" vertex="1" parent="1">
          <mxGeometry x="795" y="100" width="110" height="70" as="geometry" />
        </mxCell>
        <mxCell id="pZJrdboLxwknqrlkqhrA-29" value="" style="edgeStyle=orthogonalEdgeStyle;rounded=0;orthogonalLoop=1;jettySize=auto;html=1;exitX=0.5;exitY=1;exitDx=0;exitDy=0;" edge="1" parent="1" source="pZJrdboLxwknqrlkqhrA-33" target="pZJrdboLxwknqrlkqhrA-31">
          <mxGeometry relative="1" as="geometry">
            <mxPoint x="850" y="300" as="sourcePoint" />
          </mxGeometry>
        </mxCell>
        <mxCell id="pZJrdboLxwknqrlkqhrA-31" value="fin funcion" style="ellipse;whiteSpace=wrap;html=1;fillColor=#d80073;strokeColor=#A50040;fontColor=#ffffff;" vertex="1" parent="1">
          <mxGeometry x="795" y="350" width="110" height="70" as="geometry" />
        </mxCell>
        <mxCell id="pZJrdboLxwknqrlkqhrA-32" value="FUNCION&lt;br&gt;MultiplicarDosNumeros(num1,num2)" style="text;html=1;align=center;verticalAlign=middle;resizable=0;points=[];autosize=1;strokeColor=none;fillColor=none;" vertex="1" parent="1">
          <mxGeometry x="745" y="55" width="220" height="40" as="geometry" />
        </mxCell>
        <mxCell id="pZJrdboLxwknqrlkqhrA-33" value="multi = num1 * num2" style="rounded=0;whiteSpace=wrap;html=1;fillColor=#d80073;fontColor=#ffffff;strokeColor=#A50040;" vertex="1" parent="1">
          <mxGeometry x="790" y="220" width="120" height="60" as="geometry" />
        </mxCell>
        <mxCell id="pZJrdboLxwknqrlkqhrA-34" value="PedirNumero()" style="shape=process;whiteSpace=wrap;html=1;backgroundOutline=1;fillColor=#ffe6cc;strokeColor=#d79b00;" vertex="1" parent="1">
          <mxGeometry x="255" y="320" width="120" height="60" as="geometry" />
        </mxCell>
        <mxCell id="pZJrdboLxwknqrlkqhrA-35" value="PedirNumero()" style="shape=process;whiteSpace=wrap;html=1;backgroundOutline=1;fillColor=#ffe6cc;strokeColor=#d79b00;" vertex="1" parent="1">
          <mxGeometry x="445" y="650" width="120" height="60" as="geometry" />
        </mxCell>
        <mxCell id="pZJrdboLxwknqrlkqhrA-38" style="edgeStyle=orthogonalEdgeStyle;rounded=0;orthogonalLoop=1;jettySize=auto;html=1;entryX=0.5;entryY=0;entryDx=0;entryDy=0;" edge="1" parent="1" source="pZJrdboLxwknqrlkqhrA-36" target="pZJrdboLxwknqrlkqhrA-35">
          <mxGeometry relative="1" as="geometry" />
        </mxCell>
        <mxCell id="pZJrdboLxwknqrlkqhrA-39" value="SI" style="edgeLabel;html=1;align=center;verticalAlign=middle;resizable=0;points=[];" vertex="1" connectable="0" parent="pZJrdboLxwknqrlkqhrA-38">
          <mxGeometry x="-0.6869" y="-2" relative="1" as="geometry">
            <mxPoint as="offset" />
          </mxGeometry>
        </mxCell>
        <mxCell id="pZJrdboLxwknqrlkqhrA-40" style="edgeStyle=orthogonalEdgeStyle;rounded=0;orthogonalLoop=1;jettySize=auto;html=1;entryX=0.5;entryY=0;entryDx=0;entryDy=0;" edge="1" parent="1" source="pZJrdboLxwknqrlkqhrA-36" target="pZJrdboLxwknqrlkqhrA-19">
          <mxGeometry relative="1" as="geometry">
            <mxPoint x="320" y="1250" as="targetPoint" />
          </mxGeometry>
        </mxCell>
        <mxCell id="pZJrdboLxwknqrlkqhrA-36" value="num1&amp;gt;0" style="rhombus;whiteSpace=wrap;html=1;fillColor=#dae8fc;strokeColor=#6c8ebf;" vertex="1" parent="1">
          <mxGeometry x="260" y="525" width="100" height="120" as="geometry" />
        </mxCell>
        <mxCell id="pZJrdboLxwknqrlkqhrA-44" style="edgeStyle=orthogonalEdgeStyle;rounded=0;orthogonalLoop=1;jettySize=auto;html=1;entryX=0.5;entryY=0;entryDx=0;entryDy=0;" edge="1" parent="1" source="pZJrdboLxwknqrlkqhrA-42" target="pZJrdboLxwknqrlkqhrA-14">
          <mxGeometry relative="1" as="geometry" />
        </mxCell>
        <mxCell id="pZJrdboLxwknqrlkqhrA-45" value="SI" style="edgeLabel;html=1;align=center;verticalAlign=middle;resizable=0;points=[];" vertex="1" connectable="0" parent="pZJrdboLxwknqrlkqhrA-44">
          <mxGeometry x="-0.7692" relative="1" as="geometry">
            <mxPoint as="offset" />
          </mxGeometry>
        </mxCell>
        <mxCell id="pZJrdboLxwknqrlkqhrA-50" style="edgeStyle=orthogonalEdgeStyle;rounded=0;orthogonalLoop=1;jettySize=auto;html=1;" edge="1" parent="1" source="pZJrdboLxwknqrlkqhrA-42">
          <mxGeometry relative="1" as="geometry">
            <mxPoint x="310" y="1500" as="targetPoint" />
            <Array as="points">
              <mxPoint x="500" y="1320" />
              <mxPoint x="311" y="1320" />
              <mxPoint x="311" y="1500" />
            </Array>
          </mxGeometry>
        </mxCell>
        <mxCell id="pZJrdboLxwknqrlkqhrA-42" value="num2&amp;gt;0" style="rhombus;whiteSpace=wrap;html=1;fillColor=#dae8fc;strokeColor=#6c8ebf;" vertex="1" parent="1">
          <mxGeometry x="445" y="900" width="110" height="120" as="geometry" />
        </mxCell>
      </root>
    </mxGraphModel>
  </diagram>
</mxfile>
